<?xml version="1.0" encoding="UTF-8" standalone="no"?>
<svg
   xmlns:dc="http://purl.org/dc/elements/1.1/"
   xmlns:cc="http://creativecommons.org/ns#"
   xmlns:rdf="http://www.w3.org/1999/02/22-rdf-syntax-ns#"
   xmlns:svg="http://www.w3.org/2000/svg"
   xmlns="http://www.w3.org/2000/svg"
   xmlns:sodipodi="http://sodipodi.sourceforge.net/DTD/sodipodi-0.dtd"
   xmlns:inkscape="http://www.inkscape.org/namespaces/inkscape"
   version="1.1"
   x="0px"
   y="0px"
   viewBox="0 0 56 56"
   xml:space="preserve"
   id="svg16"
   sodipodi:docname="gitcoauth-logo.svg"
   width="56"
   height="56"
   inkscape:version="0.92.3 (2405546, 2018-03-11)"
   inkscape:export-filename="C:\Users\loren\Projects\GitHub CoAuth Tool\graphics\gitcoauth-logo-128.png"
   inkscape:export-xdpi="219.42999"
   inkscape:export-ydpi="219.42999"><metadata
     id="metadata22"><rdf:RDF><cc:Work
         rdf:about=""><dc:format>image/svg+xml</dc:format><dc:type
           rdf:resource="http://purl.org/dc/dcmitype/StillImage" /><dc:title></dc:title></cc:Work></rdf:RDF></metadata><defs
     id="defs20" /><sodipodi:namedview
     pagecolor="#ffffff"
     bordercolor="#666666"
     borderopacity="1"
     objecttolerance="10"
     gridtolerance="10"
     guidetolerance="10"
     inkscape:pageopacity="0"
     inkscape:pageshadow="2"
     inkscape:window-width="2160"
     inkscape:window-height="1346"
     id="namedview18"
     showgrid="false"
     fit-margin-top="12"
     fit-margin-left="12"
     fit-margin-right="12"
     fit-margin-bottom="12"
     inkscape:zoom="10.429825"
     inkscape:cx="48.227354"
     inkscape:cy="21.92097"
     inkscape:window-x="-11"
     inkscape:window-y="-11"
     inkscape:window-maximized="1"
     inkscape:current-layer="svg16" /><circle
     style="opacity:1;fill:#090000;fill-opacity:1;stroke:none;stroke-width:4;stroke-linecap:round;stroke-linejoin:round;stroke-miterlimit:4;stroke-dasharray:none;stroke-dashoffset:0;stroke-opacity:1"
     id="path4532"
     cx="28"
     cy="28"
     r="23.728813" /><g
     id="g14"
     transform="matrix(1.1440678,0,0,1.1440678,9.8983053,17.43183)"
     style="fill:#ffffff;fill-opacity:1"><path
       d="m 17.5,35.496296 h -3 c -1.378,0 -2.5,-1.121 -2.5,-2.5 V 22.5 C 12,22.225 11.776,22 11.5,22 10.122,22 9,20.879 9,19.5 V 12.002 C 9,10.347 10.347,9 12.002,9 h 7.996 C 21.653,9 23,10.347 23,12.002 V 19.5 C 23,20.879 21.879,22 20.5,22 20.225,22 20,22.225 20,22.5 v 10.496296 c 0,1.379 -1.121,2.5 -2.5,2.5 z M 12.002,11 C 11.45,11 11,11.45 11,12.002 V 19.5 c 0,0.275 0.224,0.5 0.5,0.5 1.378,0 2.5,1.121 2.5,2.5 v 10.496296 c 0,0.275 0.224,0.5 0.5,0.5 h 3 c 0.275,0 0.5,-0.225 0.5,-0.5 V 22.5 C 18,21.121 19.121,20 20.5,20 20.775,20 21,19.775 21,19.5 V 12.002 C 21,11.45 20.551,11 19.998,11 Z"
       id="path2"
       inkscape:connector-curvature="0"
       style="fill:#ffffff;fill-opacity:1"
       sodipodi:nodetypes="ssssssssssssssssssssssssssssss" /><path
       d="m 16,8 c -2.206,0 -4,-1.794 -4,-4 0,-2.206 1.794,-4 4,-4 2.206,0 4,1.794 4,4 0,2.206 -1.794,4 -4,4 z m 0,-6 c -1.103,0 -2,0.897 -2,2 0,1.103 0.897,2 2,2 1.103,0 2,-0.897 2,-2 0,-1.103 -0.897,-2 -2,-2 z"
       id="path4"
       inkscape:connector-curvature="0"
       style="fill:#ffffff;fill-opacity:1" /><path
       d="M 26.5,32.524445 H 23 c -0.553,0 -1,-0.447 -1,-1 0,-0.553 0.447,-1 1,-1 h 3.5 c 0.275,0 0.5,-0.225 0.5,-0.5 v -9.496296 c 0,-1.379 1.121,-2.5 2.5,-2.5 0.275,0 0.5,-0.225 0.5,-0.5 v -7.498 C 30,9.478147 29.551,9.0281469 28.998,9.0281469 H 26 c -0.553,0 -1,-0.448 -1,-0.9999994 0,-0.5519996 0.447,-1.0000002 1,-1.0000002 h 2.998 c 1.655,0 3.002,1.3469998 3.002,3.0020017 v 7.498 c 0,1.379 -1.121,2.5 -2.5,2.5 -0.275,0 -0.5,0.225 -0.5,0.5 v 9.496296 c 0,1.379 -1.121,2.5 -2.5,2.5 z"
       id="path6"
       inkscape:connector-curvature="0"
       style="fill:#ffffff;fill-opacity:1"
       sodipodi:nodetypes="sssssssssssssssssssss" /><path
       d="M 9,32.524445 H 5.5 c -1.378,0 -2.5,-1.121 -2.5,-2.5 v -9.496296 c 0,-0.275 -0.224,-0.5 -0.5,-0.5 -1.378,0 -2.5,-1.121 -2.5,-2.5 v -7.498 C 0,8.3751471 1.347,7.0281473 3.002,7.0281473 H 6 c 0.552,0 1,0.4480006 1,1.0000002 C 7,8.5801469 6.552,9.0281469 6,9.0281469 H 3.002 C 2.45,9.0281469 2,9.478147 2,10.030149 v 7.498 c 0,0.275 0.224,0.5 0.5,0.5 1.378,0 2.5,1.121 2.5,2.5 v 9.496296 c 0,0.275 0.224,0.5 0.5,0.5 H 9 c 0.552,0 1,0.447 1,1 0,0.553 -0.448,1 -1,1 z"
       id="path8"
       inkscape:connector-curvature="0"
       style="fill:#ffffff;fill-opacity:1"
       sodipodi:nodetypes="sssssssssssssssssssss" /><path
       d="m 26,6.0281473 c -2.206,0 -4,-1.794 -4,-4 0,-2.20599974 1.794,-3.9999999 4,-3.9999999 2.206,0 4,1.79400016 4,3.9999999 0,2.206 -1.794,4 -4,4 z m 0,-5.99999973 c -1.103,0 -2,0.89699975 -2,1.99999973 0,1.103 0.897,2 2,2 1.103,0 2,-0.897 2,-2 0,-1.10299998 -0.897,-1.99999973 -2,-1.99999973 z"
       id="path10"
       inkscape:connector-curvature="0"
       style="fill:#ffffff;fill-opacity:1" /><path
       d="m 6,6.0281473 c -2.206,0 -4,-1.794 -4,-4 0,-2.20599974 1.794,-3.9999999 4,-3.9999999 2.206,0 4,1.79400016 4,3.9999999 0,2.206 -1.794,4 -4,4 z M 6,0.02814757 c -1.103,0 -2,0.89699975 -2,1.99999973 0,1.103 0.897,2 2,2 1.103,0 2,-0.897 2,-2 C 8,0.92514732 7.103,0.02814757 6,0.02814757 Z"
       id="path12"
       inkscape:connector-curvature="0"
       style="fill:#ffffff;fill-opacity:1" /></g></svg>